<?xml version="1.0" encoding="UTF-8"?>
<svg xmlns="http://www.w3.org/2000/svg" xmlns:xlink="http://www.w3.org/1999/xlink" width="32pt" height="32pt" viewBox="0 0 32 32" version="1.1">
<path style="fill:#090129; stroke:#090129;" d="M0 0L0 32L32 32L32 0L0 0z"/>
<path style="fill:#ffffff; stroke:#ffffff;" d="M10 21L12 21L12 11L13 11C14.2176 13.118 14.867 13.8446 17 15C16.2674 12.9159 12.891 6.89251 10.6026 11.3372C9.26321 13.9388 10 18.155 10 21M21 9L21 19L20 19C18.7034 17.0799 18.209 16.6839 16 16L17.4529 18.838C19.369 20.8584 21.8179 20.8005 22.6829 17.8511C23.4756 15.1482 23 11.7918 23 9L21 9z"/>
</svg>
