<?xml version="1.0" encoding="UTF-8"?>
<svg xmlns="http://www.w3.org/2000/svg" xmlns:xlink="http://www.w3.org/1999/xlink" width="128pt" height="128pt" viewBox="0 0 128 128" version="1.1">
<path style="fill:#010101; stroke:#010101;" d="M0 0L0 128L128 128L128 0L0 0z"/>
<path style="fill:#09012b; stroke:#09012b;" d="M36 115L36 114C30.1499 113.36 23.1384 110.024 20 105C22.7934 103.94 28.611 103.07 30.1204 100.389L30 99L38 100C32.7868 91.2208 18.4786 90.1363 18 78C22.0462 81.4697 27.5275 85.7925 33 85C30.3642 81.2429 27.1244 78.0959 25 74L26 74C27.7826 77.3305 29.3489 78.9532 33 80C31.9268 73.1932 25.222 69.628 23.2099 62.9992C18.7751 48.3887 23.1559 33.2833 33.4398 22.0941C36.9017 18.3276 41.7761 16.9216 45 13C36.0394 13 27.4913 11.0071 20.0401 17.3403C12.9664 23.3527 12.0006 31.3071 12 40L12 77C12 83.4931 11.2047 90.59 12.3287 97C14.3079 108.287 24.5382 116.884 36 115z"/>
<path style="fill:#11013f; stroke:#11013f;" d="M33 12L33 13L45 13C41.3772 16.1042 36.7651 17.7675 33.4398 21.189C22.3325 32.618 18.2925 49.9677 23.5239 64.9846C25.56 70.829 31.3146 74.0187 33 80C29.8779 78.5204 28.1312 76.7219 26 74L25 74C26.5622 78.5954 29.6244 81.5936 33 85C27.4666 84.829 22.5872 80.9017 18 78C18.2272 83.1164 22.0852 85.9757 26 88.9599C34.7951 95.6641 46.8026 101.31 58 98L58 97C52.5556 96.5667 48.0022 95.0435 43 93L43 92C49.1301 90.9993 48.991 86.3691 49 81L49 52C51.3604 53.3126 53.3907 54.3413 56 55C55.1846 52.2567 54.2527 49.3924 51.8017 47.6227C49.0965 45.6694 46.8334 47.0344 46.2284 50.0586C45.4095 54.1519 46 58.8401 46 63L46 87C43.268 86.9676 39.9093 87.2777 38.179 84.6821C36.0033 81.4183 37 75.7217 37 72L37 43L36 43C33.8335 46.7119 31.3084 50.754 30.3904 55C29.6926 58.2274 30 61.7174 30 65L29 65C27.6857 59.4812 25.4498 54.9076 26.1852 49C26.59 45.7484 28.0276 42.9689 29.3017 40C32.3979 32.7852 36.2936 25.3825 43.0895 20.8927C45.5109 19.2931 48.2971 19.0942 51 18.2554C58.3627 15.9706 65.2337 14.0051 73 14C68.7583 11.4591 63.8083 12 59 12L33 12z"/>
<path style="fill:#290575; stroke:#290575;" d="M70 12L70 13L73 13L73 14C64.8365 14.0009 57.7507 15.8501 50 18.2554C47.3209 19.0868 44.5505 19.2712 42.1698 20.8927C36.2203 24.945 32.4145 31.5473 29.7184 38C27.1631 44.1156 25.4094 49.2375 26.1744 55.9961C26.5383 59.2119 27.9021 62.0055 29 65L30 65C30.0003 62.0355 29.7598 58.9156 30.3904 56C32.7113 45.2697 39.7874 36.7664 47.7145 29.669C51.1758 26.57 54.7801 23.1125 59.0394 21.1667C62.5196 19.5767 66.2257 18.1499 70 17.4645C74.5873 16.6315 78.6122 16.8592 83 15L83 14L77 14L77 13L95 13C91.8344 11.6717 88.4186 12.0002 85 12L70 12z"/>
<path style="fill:#11013f; stroke:#11013f;" d="M77 13L77 14L83 14L83 15C77.6543 16.668 72.3648 16.5637 67 17.9028C60.5696 19.5079 55.3076 22.4954 50.2708 26.7099C46.9737 29.4687 44.1973 31.8129 43 36C45.9149 35.6319 49.0916 34.7259 52 35.5285C62.1893 38.3405 65.874 52.1552 71 60L72 60C69.4115 48.5769 61.38 40.3305 55 31C62.7623 29.2205 69.8383 26.0359 78 27.2099C86.8479 28.4825 93.9473 33.9078 102 37C99.4094 33.6089 89.9322 26.5642 96.3179 22.1752C98.8787 20.4151 103.055 20.0751 106 19L106 18L102 17L103 14C98.41 12.2937 94.7838 12.7589 90 12.9606L77 13z"/>
<path style="fill:#0b012f; stroke:#0b012f;" d="M102 15C103.229 16.8698 103.868 17.2235 106 18L106 19C103.015 19.7901 98.0111 20.2153 95.6034 22.1752C89.7881 26.9087 98.9367 34.1685 102 37C91.4396 31.0135 80.5956 25.4387 68 27.2091C63.6042 27.827 59.2194 29.6503 55 31C57.2532 35.919 61.2987 39.476 64.2114 44C66.6239 47.747 68.605 51.919 70.3812 56C72.4404 60.7314 72.7321 64.1491 78 66C79.8637 59.695 78.9865 52.5425 79 46C79.0074 42.4009 78.7767 38.6394 81.7238 36.0324C86.9337 31.4238 91.5025 36.2883 95.1698 39.9468L102.532 45.5448C105.884 48.5128 107.754 52.8524 109.162 57C112.43 66.6287 110.887 75.7654 107.142 85C105.966 87.9001 104.95 91.0801 102.983 93.5571C100.523 96.6544 96.9249 98.534 94 101.129C89.8014 104.854 86.1249 109.204 81 111.736C76.8029 113.81 71.6 114.406 67 115C71.7199 116.981 77.9198 116 83 116C90.5477 116 98.1993 116.552 104.999 112.633C114.858 106.952 115.999 96.2751 116 86L116 48C116 38.505 117.51 27.7369 110.786 20.0154C108.223 17.0714 105.851 15.1709 102 15z"/>
<path style="fill:#210167; stroke:#210167;" d="M42 34C39.0257 37.1186 36.5636 39.9626 35 44L36.5 43.8333C37.7318 46.6665 37 50.8865 37 54L37 85L38 85L38 61C38 56.4291 37.4617 51.4299 38.8002 47C40.8377 40.2562 47.986 34.2227 54.9599 38.7423C58.9105 41.3026 61.2953 46.0305 63.5725 50L70 62L61 62C62.8768 71.0688 67.3083 84.7682 77.0008 88.2577C80.2179 89.416 83.7337 88.4124 87 88C85.468 90.3202 85.0276 91.2537 85 94C80.4449 96.2721 77.7923 100.805 72.9853 102.779C69.384 104.259 65.7362 104.587 62 105.452C58.6289 106.233 55.4768 107.476 52 107.829L42.0015 108.259L35 110L35 111C40.8999 112.349 46.9033 113.828 53 113.946L63 113C69.4624 112.434 76.1838 111.526 82 108.458C87.7128 105.443 92.5618 100.783 96.8264 96C102.767 89.3376 107.299 81.8635 108.572 73C109.609 65.7769 108.57 59.9778 102 56C102 63.5653 102.939 75.3476 94 78L93 82L92 82L92 37L90 37L90 65C90 69.4325 90.7508 74.6918 89.5664 78.9992C89.1827 80.3945 88.5484 81.8062 87.5664 82.8912L84.956 85.2569C78.3001 89.0991 72.9779 83.5586 69.7847 78L63 66C65.7567 66.0021 69.2067 65.5325 71.6713 67.0278C75.9328 69.6132 77.187 75.7314 81 79C82.5211 73.8538 82 68.3392 82 63L82 37L88 37L88 36C85.53 36.0224 81.7877 35.5648 80.0278 37.7423C78.3767 39.785 79.0011 43.5699 79 46C78.997 52.6594 79.5508 59.486 78 66C67.9518 60.6315 66.5788 46.9967 58.7909 39.189C56.9013 37.2946 54.6537 35.8056 52 35.2824C48.4624 34.5849 45.3914 35.5348 42 34z"/>
<path style="fill:#150147; stroke:#150147;" d="M82 34L82 36L92 37L92 82L93 82L94 78C103.473 76.4548 102 63.3077 102 56C104.343 58.072 106.883 60.3434 108.157 63.2863C109.474 66.3289 108.907 69.8405 108.41 73C107.138 81.08 102.984 87.8002 97.6991 94C93.0006 99.5124 87.462 105.048 81 108.458C74.8413 111.707 67.8162 112.441 61 113.075L53 113.871C46.8784 113.72 40.997 111.882 35 111L35 110L44 108.129L54 107.71L64 105.244C67.7337 104.517 71.4276 104.069 74.9097 102.377C78.8593 100.457 81.5181 96.5921 85 94C85.1801 91.5766 85.8282 90.1455 87 88C84.1036 88.2267 80.8353 89.1494 78 88.2222C73.2302 86.6624 69.806 82.1732 67.4637 77.9961C63.3097 70.5881 60.9544 62.5171 57 55L56 55C56.8892 59.2602 58.9218 62.9223 60.3557 67L65.2153 79C66.6643 82.2842 67.5514 85.775 70.5185 88.1011C72.9621 90.0167 76.0158 90.6338 79 91C71.5863 104.434 50.9078 102 38 102C37.5004 105.823 34.1863 104.561 31.0833 105.111L24 107C26.1717 108.786 28.4217 109.405 31.0008 110.524C38.6569 113.845 45.5637 115.997 54 116C62.8805 116.003 72.6668 115.734 81 112.196C86.1672 110.002 89.9732 105.791 94 102.053C96.867 99.392 100.482 97.3987 102.983 94.3704C106.521 90.0866 108.456 83.2775 109.96 78C112.725 68.296 111.185 55.1913 104.779 47.1435C102.905 44.788 100.272 43.5905 98 41.7014C95.5348 39.6514 93.662 36.5932 90.8302 35.0278C88.2313 33.591 84.8602 34.0022 82 34z"/>
<path style="fill:#ffffff; stroke:#ffffff;" d="M38 87L46 87L46.0008 56C46.013 53.6723 45.508 47.2068 49.213 47.2068C50.9737 47.2068 52.368 48.8135 53.3634 50.0633C55.7067 53.0053 56.7636 56.834 59.2438 59.6821C61.9169 62.7517 66.3176 61.9996 70 62C68.3276 56.7151 65.2346 51.7566 62.3958 47C60.8125 44.3471 59.2281 41.4363 56.8148 39.4336C50.9549 34.571 42.4626 37.4573 39.5332 44.0154C37.332 48.9433 38 54.7431 38 60L38 87M82 37L82 62C82 67.7181 82.3316 73.4068 81 79C78.1314 75.5091 75.8876 68.4897 71.6713 66.6034C69.1546 65.4775 65.6894 66.0003 63 66C64.6072 69.8399 66.6785 73.3637 68.6952 77C70.3972 80.0689 72.0119 83.2716 75.0432 85.2577C80.0139 88.5144 87.0403 86.6071 89.2577 80.9846C90.8782 76.8757 90 71.3365 90 67L90 37L82 37z"/>
<path style="fill:#0b0131; stroke:#0b0131;" d="M49 52L49 80C48.9908 85.5128 48.9516 90.2327 43 92L43 93C47.7419 95.718 52.5561 96.7657 58 97L58 98C42.2604 101.746 31.0926 90.9977 19 83C21.6904 91.3473 32.4849 93.8515 38 100C35.3142 99.4992 32.7301 99.1174 30 99C29.4812 102.992 23.2539 103.162 20 105C22.3414 110.592 30.1569 113.681 36 114L36 115L33 115L33 116L45 116L45 115C37.7335 113.204 31.1977 110.043 24 108L24 107C26.9584 106.867 29.2138 105.721 32.0602 105.194C33.8771 104.858 35.7182 105.111 37.4074 104.222C38.3621 103.72 37.903 102.772 38 102C47.8849 102 58.4064 102.865 67.9961 99.956C72.6171 98.5541 77.4277 95.6958 79 91C76.0006 90.3732 72.8726 89.5593 70.5185 87.4506C67.6686 84.8977 66.6998 81.3649 65.2153 78L61.838 71C60.0352 66.0237 58.9894 59.731 55.2338 55.7292C53.4982 53.8797 51.2866 52.9312 49 52z"/>
</svg>
