<?xml version="1.0" encoding="UTF-8"?>
<svg xmlns="http://www.w3.org/2000/svg" xmlns:xlink="http://www.w3.org/1999/xlink" width="256pt" height="256pt" viewBox="0 0 256 256" version="1.1">
<path style="fill:#010101; stroke:#010101;" d="M0 0L0 256L256 256L256 0L0 0z"/>
<path style="fill:#09012b; stroke:#09012b;" d="M53 28L53 29L58 28C55.3778 31.2055 52.5761 32.9951 49 35L49 36C50.2848 40.4659 45.1697 45.191 43.0031 49C38.2359 57.381 34.2996 67.5307 32.3719 77C29.7791 89.7364 29.1089 103.17 31.027 116C31.4658 118.935 31.0926 121.973 32.0023 124.83L34.9113 131.039L38.8063 141L47 156C44.9316 154.507 43.2125 153.106 41.6836 151.021C39.4337 147.951 38.3913 144.929 35 143C35.2398 140.369 34.7541 138.557 34 136C30.5499 136.191 28.1618 135.338 25 134C25.9688 138.222 28.2766 141.274 30.3812 145L34.0023 151.83L39.9144 159.011C42.6542 162.632 45.325 166.535 49.2855 168.97C51.062 170.062 52.9697 170.251 54.9105 170.869C58.7887 172.104 60.7664 174.785 65 174L63 170C64.4516 169.749 64.7516 169.685 66 169L66 168C33.5687 143.024 27.7737 94.4988 45.2731 59C49.1997 51.0348 54.4491 42.8489 60.4552 36.3002C63.8561 32.592 68.0191 30.1439 71 26C64.6453 25.6297 59.1356 26.2758 53 28z"/>
<path style="fill:#0b012f; stroke:#0b012f;" d="M66 25L66 26L71 26L60.4552 35.4637C56.7135 39.3884 53.7408 44.0059 50.8843 48.5756C43.7791 59.9421 38.0778 72.456 37 86L38 86C40.6566 75.9838 44.6769 66.7623 48 57L49 57C48.2635 65.9391 42.2368 73.2069 40.4784 82C39.8828 84.9782 40.0937 87.9877 39.9606 91L39.0787 100L39.9105 108L40.2593 120C41.8404 129.658 45.1464 137.623 50.0532 145.996C54.3788 153.377 59.2178 161.559 68 164C67.262 159.745 65.5283 157.144 62.9846 153.742C60.579 150.524 59.1808 147.935 55 148L55 144C49.3057 139.106 46.6644 130.129 44.8735 123C39.7698 102.685 43.5737 80.0533 53.8727 62C57.1886 56.1874 61.1581 47.44 67 44C70.1442 33.0368 85.1827 35.0696 91 26L66 25z"/>
<path style="fill:#110141; stroke:#110141;" d="M72 25L72 26L107 26L107 27C104.322 27.2843 102.429 28.2672 99.9398 29.2407C95.0202 31.1651 89.7198 33.2026 87 38L86 37L83 37L82 36L83 35C74.6115 38.8424 71.1687 46.1864 65.3596 52.7369C62.4397 56.0293 58.8454 58.2335 56.3974 62.0147C50.9168 70.4798 47.9871 80.1841 46.4105 90C45.6593 94.6767 44.8309 99.2387 45.0394 104L46.7006 114C47.679 120.639 48.2415 127.785 51.0355 134C54.6378 142.014 60.966 147.908 65.9205 155C67.6112 157.42 69.2911 160 69.6474 163C70.0612 166.485 69.1139 169.551 70.4066 172.996C73.931 182.39 85.4339 182.929 94 183L95 178C88.6713 179.507 78.0928 180.776 73.6034 174.786C70.3764 170.481 72.7824 164.084 71.7253 159.17C71.0793 156.167 68.9356 153.609 67.4275 150.996L63.0378 143.209L58.7083 138.64C55.6915 134.849 52.435 129.555 50.7894 124.999C49.4026 121.16 49.2391 117.009 48.7184 113C47.8353 106.201 46.9006 97.8753 48.2739 91.0895L51.0772 83.9606C52.1488 80.6633 52.8231 77.2303 54.3511 74.0895C57.4759 67.6665 62.7635 60.4146 67.7485 55.3017L76.1698 48.892C83.0038 42.2018 90.4253 37.1706 98.8302 32.7593C104.674 29.6919 110.268 26.3123 117 26C112.531 24.1248 106.809 25 102 25L72 25z"/>
<path style="fill:#1d0357; stroke:#1d0357;" d="M54 129L55 129C54.7506 116.918 50.1066 105.104 52.8889 93C54.0119 88.1146 56.0813 83.6647 57.841 79C59.6126 74.304 60.9084 69.4593 63.4753 65.0895C67.2253 58.7057 73.7024 52.6355 80 48.8025C82.508 47.276 85.3236 46.9676 88 45.8904C91.743 44.384 95.4353 42.2554 99 40.3596C106.934 36.1398 114.982 29.4455 124 27.6983L131 27.4869C136.606 27.1055 142.377 26.5315 147.999 27.1258L155.424 28.7323C159.538 29.3269 163.854 29 168 29L168 30C153.441 30.0402 140.309 33.696 127 39.3835C121.886 41.5687 114.934 44.1651 112 49L129.004 43.0039L142.83 39.4907L153.17 34.3002C160.128 31.7112 168.589 30.153 176 30L176 29C169.612 28.4959 163.431 28 157 28L157 26L184 26C180.301 24.448 175.983 25 172 25L149 25L128 25C122.352 25 116.572 24.9332 111.09 26.5394C106.471 27.8923 102.162 30.5847 97.9113 32.7593C88.9838 37.3258 81.6899 42.8504 74.4252 49.7724L67.0147 55.3017C62.1611 60.4164 56.7861 67.6341 53.9267 74.0895L50.7593 83.9606L48.2739 90.1698C47.6835 93.0033 48 96.1224 48 99C48 102.624 47.7078 106.402 48.2091 110C49.1166 116.513 51.7506 122.868 54 129z"/>
<path style="fill:#0d0135; stroke:#0d0135;" d="M183 28C185.53 28.6482 186.885 29.4269 189 31C185.635 32.063 182.449 33.9977 178.985 34.6605C175.064 35.4109 170.913 34.3737 167.039 35.3133L160.83 38.4159L154.17 39.5455C149.657 40.9851 145.75 43.0196 141 44L142 47C136.765 47.4571 131.968 49.3834 127 51L127 52C137.44 50.6806 148.47 49.0216 159 50.2855C163.705 50.8503 167.551 52.5524 172.039 53.75C175.734 54.7357 179.529 54.878 183 56.6088C190.209 60.2037 195.088 65.7267 201 71L189 63.5332C185.843 62.0206 182.317 61.8503 179 60.8171C172.49 58.7893 166.896 56.5442 160 56C161.889 58.7496 165.259 60.0561 168 62C164.438 62.8187 161.579 62.6548 158 62L158 63L161 66L149 66L149 67C152.247 67.4487 156.186 67.9524 157.958 71.1443C160.297 75.3593 156.959 80.7748 156.259 85C155.231 91.208 155.976 97.8512 154.54 103.999C153.966 106.457 152.914 109.38 150.705 110.821C148.995 111.937 146.949 111.893 145 112C144.269 107.617 141.027 104.9 139.054 100.999L135.581 94.0394L126.441 82C122.807 76.1804 119.832 69.8985 114 66L114 65C117.313 62.7641 120.254 60.4672 124 59L124 58C118.309 58.853 110.101 60.9273 107 66C110.745 67.4359 114.637 69.3309 117.366 72.3758C120.576 75.9577 122.29 80.9034 124.821 84.9606L131.807 95.0895L138.066 107.679L141.212 112.325C145.073 119.566 147.672 129.557 157 131C156.815 127.583 157.673 124.395 157.91 121L158.91 104C159.365 97.3624 158.42 90.609 159.289 84C159.971 78.8175 162.796 74.1278 163 69C166.943 68.1647 170.928 66.5092 175 67.3441C181.822 68.7429 184.846 73.9343 189.325 78.5756C193.803 83.2159 199.405 87.0704 203.446 92.0895C207.527 97.1583 208.115 104.02 215 106C213.985 98.2509 207.235 89.7839 201.7 84.4637C197.43 80.3603 193.566 77.9969 192 72L197 75C202.079 74.028 206.364 79.5987 209.715 82.8858L215.455 88.2593C217.262 90.5219 218.231 93.4953 219.674 96C223.526 102.69 227.453 109.697 230 117L231 117C231 113.38 231.319 109.582 230.722 106C229.191 96.8134 223.817 90.0034 218.194 83L214.394 77.412C212.317 75.1825 209.501 74.2 207.537 71.7407C204.557 68.0078 200.7 66.0408 197.398 62.7407C195.215 60.5592 194.256 58.6065 197 57L197 56L187 52C187.338 50.3279 187.537 50.6898 186 50L186 49L191 49L189 44L195 45L194 42L204.909 42.8318C207.036 42.6742 209.017 41.7082 211 41L208 37L211 37L211 36C209.483 35.0427 208.661 34.6128 207 34L209 31C203.625 27.9445 198.082 26.5282 192 25.5903C188.195 25.0036 185.212 24.5885 183 28z"/>
<path style="fill:#0d0137; stroke:#0d0137;" d="M67 44C63.591 45.2082 62.0261 48.0044 60.0748 51.0008C57.5303 54.9082 54.9654 58.8789 52.7816 63C43.1434 81.1887 39.8166 103.871 44.8735 124C46.4953 130.456 48.9287 140.545 55 144C54.7761 145.684 54.7817 146.313 55 148C61.4498 149.539 66.3087 157.899 68 164C59.4545 160.086 54.6082 152.827 50.0532 144.999C45.1691 136.606 41.8423 128.67 40.2593 119L39.9105 107C39.3796 99.2397 38.9341 90.7223 40.4784 83C42.3044 73.8689 48.5903 66.3679 49 57L48 57C44.3979 64.5206 41.9026 72.0708 39.4676 80C38.5309 83.0503 36.7343 85.8339 36.1944 89C35.4835 93.1692 36 97.78 36 102C36 115.5 37.7007 128.572 43.3056 141C45.5514 145.98 49.2137 151.743 52.8194 155.847L59.1343 162.426C60.3656 163.94 65.0271 167.356 64.1389 169.495L63 170L65 174C61.1537 174.091 59.3291 171.961 55.8657 170.735C53.8785 170.031 51.8392 170.071 50 168.917C45.7351 166.241 42.9021 161.937 39.9144 158.039L34.0023 150.91L26 137L25 137L25 183L26 183L26 150C30.6331 154.049 35.0319 159.715 38.2076 165L41.0139 171.83C42.4195 174.616 44.7607 177.14 46.9444 179.334C50.0221 182.426 53.4713 184.329 57.0039 186.796L64 191.958C69.687 195.44 75.6233 196.901 82 198.475C85.8852 199.433 89.948 200.899 94 200.806L102 199.209L113 198.674L121 196.517L132 195L132 194C124.779 193.69 117.067 192.58 110 191.037C106.847 190.349 104.221 189.038 101 189C100.339 187.604 100.036 187.186 99 186L103 185L103 184C102.429 183.363 101.372 182.671 101.172 181.698C100.56 178.725 103.105 176.652 104 174L101 174L100.401 167.002L101.495 157.91C101.545 145.843 101.047 134.07 102 122C103.566 122.074 105.431 121.806 106.924 122.385C111.15 124.023 117.561 130.532 118.542 135.04C119.166 137.902 118.359 141.132 118 144C120.613 145.63 121.394 147.854 123.054 150.425L129.525 159.91L133.894 166.569L139.291 171.336C143.826 176.234 147.837 182.119 154 185C150.368 189.521 146.222 191.424 141.285 194.219C137.533 196.344 134.082 198.702 130 200.236C124.991 202.119 119.321 202.954 114.09 204.035L106.961 205.832L98 205.039L82 205L82 206C83.7968 206 83.5215 206.014 85 207L80 208L80 209L83 209L83 210L59 211L59 212C61.7058 213.044 63.7012 214.226 66 216C62.306 216.879 58.7857 216.997 55 217L55 218C58.7873 220.967 62.5909 222.881 66.8302 225.106C69.2034 226.351 71.3719 227.827 74.0147 228.468C77.5541 229.326 81.3865 229 85 229L85 228C75.4399 226.764 68.022 221.729 59 219L59 218C63.1876 218 71.0999 219.671 71 214C77.1838 214 83.8953 214.734 90 213.671C93.7858 213.012 97.1706 210.829 101 210.418L108.999 210.535L119.09 208.245C127.355 206.575 136.446 206.076 143.896 201.583C146.147 200.226 147.512 198.14 149.375 196.36C153.07 192.83 157.978 191.184 161.941 188.062C163.593 186.76 165.944 184.701 165.248 182.299C164.715 180.458 162.559 180.044 160.981 179.591C157.65 178.636 154.146 177.858 151 176.362C148.278 175.068 146.14 173.067 144.001 170.985C139.093 166.205 133.04 160.008 132 153L129 153C128.268 147.405 124.624 143.281 122.916 138C121.921 134.924 122.393 131.409 120.682 128.59C118.203 124.505 113.777 122.175 111.443 117.91C107.952 111.53 105.881 103.197 98 101C96.6614 117.961 97 134.962 97 152C97 158.622 97.4104 165.394 96.946 172C96.667 175.969 94.2139 179.16 94 183C85.2389 182.819 73.7504 181.73 70.4421 171.999C69.3107 168.671 70.2707 165.37 69.7222 162C69.3031 159.425 68.0447 157.147 66.6188 155C61.3992 147.141 54.1669 140.983 50.6096 132C48.3754 126.358 47.5426 119.969 46.8302 114L45.0432 103C44.9075 98.948 45.7714 94.9789 46.4105 91C47.993 81.1475 50.9577 71.5279 56.3974 63.0039C59.0582 58.8342 62.9274 56.3752 66.091 52.7369L72.4676 44.0394C75.4651 40.5138 79.2011 37.5976 83 35L82.6389 36.1389C83.5059 37.3394 85.6959 37.6121 87 38C92.0989 32.4647 99.7114 28.6901 107 27C102.932 25.2929 95.5775 25.1151 91.4244 26.8179C87.4015 28.4672 84.1813 31.7195 80.1698 33.429C74.2598 35.9476 68.1748 36.5487 67 44z"/>
<path style="fill:#0f013d; stroke:#0f013d;" d="M157 26L157 28L176 29L176 30C170.07 30.0491 164.734 31.3282 159 32.6644C156.421 33.2654 153.881 33.6121 151.425 34.6605C146.575 36.7309 142.61 40.0416 137.999 42.51C133.607 44.8616 128.919 46.3343 124 47L125 51C117.466 52.7429 111.047 55.4403 104.59 59.6003C101.096 61.8516 97.8168 62.3139 98 67C102.221 66.8966 107.774 68.2311 111.561 70.2207L119 75C117.039 69.8074 112.185 67.3387 107 66C109.706 62.9868 112.286 62.125 116 60.6813C122.645 58.0985 128.867 56.3086 136 55.9614C142.71 55.6348 149.233 54.4939 156 55.1705C160.217 55.5922 164.923 56.3253 169 57.4799L179 61.1242L187 63.0741C192.011 65.1376 195.934 69.0518 201 71C195.971 64.6883 189.738 58.5613 182 55.7091L172.039 53.4861L165.83 51.2238C156.776 49.029 147.136 49.9462 138 50.8302L127 52L127 51C132.062 49.8288 136.849 47.7608 142 47C142 45.2032 141.986 45.4785 141 44C143.976 43.5992 147.011 43.0923 149.83 42.0015L155.09 39.5455L161.715 38.4159L167.039 35.5841C170.817 34.2986 175.085 35.338 178.985 34.8117C182.528 34.3337 185.762 32.4215 189 31C184.263 25.909 178.549 26 172 26L157 26z"/>
<path style="fill:#27056f; stroke:#27056f;" d="M61 139L62 139C61.7694 133.629 60.7421 128.414 61.0432 123L62.8302 114C63.4773 110.459 63.4478 106.616 64.4915 103.17L67.385 96.9606C69.7856 91.4495 71.8489 87.4332 76 83L75 89C78.4112 85.8952 80.0609 81.5118 83.3009 78.1852C87.5615 73.8106 94.7843 70.4907 101 71.2245C105.13 71.7121 109.005 73.9074 113 75C107.306 66.5872 92.8656 69.9892 85 73C88.7213 63.5199 98.1538 59.0873 105.999 53.4413L115.17 45.9051C130.498 36.0404 149.832 30.1504 168 30C164.252 28.4274 160.084 29.2529 156.09 28.6165L148.961 27.115C143.049 26.5426 136.918 27.0309 131 27.2546C127.934 27.3705 124.988 27.0141 122 27.909C112.282 30.8196 103.997 37.4422 95 41.8951L87 45.6944L81 47.6319C74.2515 50.9066 67.3396 57.7798 63.4753 64.1698C60.8647 68.4867 59.6029 73.3297 57.841 78C55.8395 83.3056 53.4613 88.3667 52.4637 94C51.1057 101.669 52.4 109.42 53.5756 117C54.0805 120.255 54.262 123.655 55.1852 126.83C56.4284 131.106 59.4441 134.784 61 139z"/>
<path style="fill:#070125; stroke:#070125;" d="M34 136L35 143C39.7712 147.028 41.1119 153.186 47 156C45.2462 150.97 42.3225 146.684 39.8403 142L34.9113 130.09L32.365 124.83C31.3776 121.992 31.7916 118.931 31.2994 116C29.5957 105.856 29.8154 96.1868 31.2708 86C31.7992 82.3021 32.0874 78.5841 33.1821 75C36.2801 64.8567 39.6658 54.9321 45.51 46C47.3197 43.2342 51.6638 38.937 49 36L49 35C52.9984 33.4086 55.8667 31.8212 58 28C53.7623 28.7989 49.7731 29.4017 46 31.6343C43.0337 33.3894 40.4469 35.5839 38.0154 38.0154C21.2354 54.7955 25 80.3469 25 102L25 123C25 126.027 24.3822 129.962 25.6034 132.811C27.1695 136.465 30.6531 136.573 34 136M207 32C208.125 34.029 209.336 35.3428 211 37L208 37L208 38L211 41L204.909 42.6512C201.384 43.014 197.574 42.0296 194 42C194 43.7968 194.014 43.5215 195 45L189 44L191 49L186 49L186 50C188.179 50.7264 187.78 50.4395 187 52C190.36 53.4387 193.426 55.1824 197 56L197 57L194 57C195.325 62.316 198.919 64.3472 202.947 67.6759L208.834 73.8719L213.6 77.4954C217.099 80.97 218.825 85.0256 223 88L223.833 86.6667C223.399 82.5413 218.814 82.4729 217.333 79C216.902 77.9894 215.431 71.6875 217 75L218 75C216.372 69.4366 211.081 65.4683 206 63L207 59C209.323 60.4769 211.487 61.8941 214 63C211.725 59.8049 209.561 57.6632 206 56L206 54L211 52C209.369 50.6342 207.962 49.8582 206 49L206 47C209.864 46.3876 213.156 47.3403 216.999 47.5455C219.201 47.6631 221.513 47.1149 223.362 48.6427C225.696 50.5711 226.74 54.3427 228 57C228.666 53.7802 227.221 50.8805 225.676 48C221.9 40.9613 215.32 32.9266 207 32z"/>
<path style="fill:#4b11a3; stroke:#4b11a3;" d="M80 54C72.7929 64.3529 64.2057 73.7309 60.1049 86C59.1164 88.9575 59.1497 91.9526 58.7006 95L57.1736 103C56.6455 107.933 57 113.043 57 118L58 118C58.2328 112.661 59.8794 108.058 61.4344 103C62.4621 99.6572 63.1566 96.1274 65.0594 93.1289L70.2191 86.8711C74.0328 81.0033 77.8598 74.8059 82.76 69.7454L92.7407 60.5903C101.982 51.2969 112.429 42.2527 125 38C120.548 36.2803 116.141 39.0989 112 40.8465C106.707 43.08 100.428 44.2019 95.4252 46.8951C89.733 49.9591 86.9838 54.2461 80 54z"/>
<path style="fill:#15014b; stroke:#15014b;" d="M85 73C91.7366 71.0883 98.9863 68.5554 105.999 70.7539C110.183 72.0656 112.433 74.7732 115.549 77.5795C117.153 79.0245 118.837 80.221 120.03 82.0648L124.388 91.0147L134.219 107L137.715 114.961L141.077 120.285L143.148 127.424C144.911 131.067 148.114 133.641 150.274 137C152.83 140.976 153.295 145.033 157.971 147.258C159.24 147.862 160.643 147.849 162 148L162 75L161 75C158.564 84.4146 159.566 93.4325 158.91 103L157.829 121C157.485 124.454 156.647 127.527 157 131C148.538 128.618 145.17 119.541 141.623 112.325L138.066 106.83L133.522 97L125.424 84.9606C123.645 82.1523 122.312 78.9415 120.176 76.3789C116.36 71.8016 111.443 69.8719 105.996 68.1705C102.984 67.2299 101.121 66.4663 98 67L97 64L111.004 55.9954C115.359 53.7677 120.358 52.5103 125 51L124 47C130.57 46.4626 136.191 43.972 142 41C137.073 39.2374 129.953 42.2033 125.17 43.9344C120.4 45.6608 115.497 47.1223 111 49.5146C106.453 51.9336 102.27 55.2794 98.0039 58.1674C92.2706 62.0487 86.8122 66.0622 85 73z"/>
<path style="fill:#070121; stroke:#070121;" d="M206 47L206 49L211 52L206 54L206 56C208.952 58.0758 211.436 60.4552 214 63C211.677 61.5231 209.513 60.1059 207 59L206 63C210.661 66.2472 215.492 69.8219 218 75L217 75C217 73.1468 217.3 73.6499 216 73C216.069 75.7082 216.499 78.2375 218.124 80.5448L222.145 85.1289L224.283 91C226.366 95.7389 228.792 99.9027 230 105C232.395 99.2927 231 91.154 231 85C231 74.786 232.068 64.47 227.586 55C226.519 52.7445 225.532 49.5035 223.362 48.0417C220.953 46.4187 216.79 47.3596 214 46.9614C211.032 46.5378 208.91 46.265 206 47z"/>
<path style="fill:#0b012f; stroke:#0b012f;" d="M114 65L114 66C120.197 71.7852 123.608 79.1522 128.46 85.9606L135.581 95.0147L140.129 103.961C141.89 106.816 144.024 108.757 145 112C147.126 111.948 149.625 112.138 151.452 110.821C154.023 108.967 154.714 104.922 154.95 102C155.395 96.4787 155.278 90.4018 156.456 85C157.509 80.1703 161.225 73.1955 156.843 69.0293C156.106 68.3294 154.865 68.2627 154 68L154 69L157 70C155.689 75.4909 154.945 81.3838 154.289 86.9992C153.982 89.6326 154.591 92.7326 153.177 95.1011L151.316 97.26L149.001 99.0077C144.739 100.908 143.089 96.0338 140.986 93.1836C138.629 89.9888 136.563 88.0418 136 84L132 85C130.997 82.2939 129.512 79.832 129 77C126.079 74.6777 123.161 71.6929 127 69C126.098 67.0775 125.924 67.0012 124 66C125.576 64.7666 127.169 63.2132 129.174 62.7276L136 62.5363C140.546 62.129 145.359 61.4543 149.909 62.2593L156 64L156 65L149 65L149 66L161 66C160.098 64.0775 159.924 64.0012 158 63L158 62C161.615 62.8588 164.424 63.0475 168 62C165.252 59.3357 160.706 56.1898 156.907 55.3017C151.051 53.933 143.883 55.02 138 55.7145L129 56.3403C123.254 57.439 118.17 61.1062 114 65z"/>
<path style="fill:#09012b; stroke:#09012b;" d="M124 66L127 69C121.399 70.2002 125.506 75.6489 129 77C129.251 80.1162 130.505 82.2351 132 85L136 84C136.337 88.7951 138.975 91.2033 141.631 95.0216C142.697 96.5535 143.691 98.702 145.466 99.5486C148.368 100.933 151.872 98.0628 153.258 95.6744C154.752 93.0992 154.089 89.8446 154.442 87L157 70C154.291 68.3466 152.146 67.4078 149 67L149 65L156 65C150.45 60.5557 142.687 61.9116 136 62.3349C130.806 62.6637 127.767 61.8659 124 66z"/>
<path style="fill:#17014d; stroke:#17014d;" d="M163 69L162 75C167.066 71.9957 177.633 67.4458 181.972 74.3441C183.346 76.5278 182.995 79.5428 183 82L183 99L183 143C183 154.637 182.566 166.46 171.985 173.867C161.418 181.262 150.483 174.652 143.576 166C140.463 162.101 136.955 158.444 134.609 153.996L131.285 146C129.28 142.142 126.736 138.637 125.094 134.576L122.914 126C121.148 121.797 118.14 117.909 115.8 114C112.283 108.125 109.604 101.436 105.39 96.0193C103.639 93.7669 101.187 91.1854 98.044 91.5818C94.7648 91.9953 93.4365 95.1127 93.1088 98.0039C92.3333 104.847 93 112.115 93 119L93 141L93 174L81.0039 173.981C79.1457 173.899 77.1331 173.817 75.7423 172.397C73.8904 170.505 74.0379 167.441 74.0039 165L74 150L74 115C74 104.084 73.9168 93.7423 76 83C70.973 86.8555 69.476 91.3641 66.9645 96.9606C60.9993 110.253 60.8736 124.728 62 139L61 139C59.6738 133.74 56.7399 131.124 53.9306 126.78C51.5026 123.026 50.3612 118.383 50 114L49 114C49.0901 118.367 49.4785 122.914 51.1844 126.985C53.7688 133.153 58.3161 138.103 62.3781 143.209C64.4756 145.846 65.735 149.091 67.4275 151.985L71.1821 158.285C73.303 163.542 69.8514 171.028 73.6034 175.606C77.0948 179.866 84.1047 179.138 89 178.985C91.1692 178.916 93.733 178.886 95.3966 177.258C97.0511 175.638 96.9551 173.134 96.9954 170.999L97 157C97 141.712 96.3705 126.273 97.0394 111L98 101C105.576 104.441 107.66 112.166 111.443 118.826C113.813 122.999 118.252 125.363 120.682 129.428C122.399 132.3 121.906 135.877 122.916 139C124.508 143.923 127.838 147.932 129 153L132 153C132.517 159.981 138.182 166.249 143.004 170.985C145.131 173.074 147.282 175.07 150 176.362L161.937 180.144C163.259 180.675 164.793 181.448 164.793 183.108C164.793 185.933 161.045 188.104 158.999 189.405C154.15 192.489 149.053 194.27 147 200C152.992 197.826 158.998 195.049 163.995 191.04C166.941 188.677 169.861 186.697 168 183C172.952 179.7 177.269 175.642 180.986 170.985C182.663 168.884 184.676 166.567 185.593 164C186.564 161.278 185.417 158.73 185.128 156C184.676 151.73 185 147.29 185 143C185 125.407 183.775 107.369 187 90L190 90C191.523 94.1516 193.509 97.267 197 100L194 93C197.441 96.658 202.213 100.031 204.992 104.174C206.584 106.548 206.953 109.427 208.106 112C210.873 118.178 214.863 124.571 216.54 131.17C217.644 135.513 217 140.546 217 145C219.795 138.339 217.579 129.796 216.31 123C215.302 117.599 214.405 112.135 212.316 107L208.463 100C206.871 97.004 205.634 93.8096 203.446 91.1698C199.875 86.8608 195.158 83.264 191.093 79.4244C185.064 73.7292 180.656 65.8415 171 66.7485C168.291 67.0029 165.593 68.2194 163 69z"/>
<path style="fill:#250175; stroke:#250175;" d="M77 174L77 119L77 102C77.0002 98.335 76.7656 94.5619 77.7894 91C81.8346 76.9258 98.1057 68.1537 110.996 76.8534C118.182 81.7032 121.98 90.693 126.15 98L141 124L122 124L124.749 134.576C126.447 139.411 129.634 143.415 131.788 148C135.09 155.031 137.571 161.123 144 166C140.953 157.628 135.756 149.956 131.752 142C129.921 138.361 127.911 134.982 127 131C131.95 131 139.594 129.56 143.815 132.603C148.731 136.149 149.621 142.97 155 146L150.274 136C148.142 132.683 144.888 130.166 143.148 126.576L141.077 119.424L137.715 113.985L134.219 106L124.388 90.0394C122.651 86.9832 121.648 83.0918 119.43 80.375C114.38 74.1911 103.82 70.0324 96 71.3256C85.8141 73.0102 77.7869 81.3174 74.5849 91C72.8268 96.3162 74 103.449 74 109L74 145L74.0008 165C74.0203 168.695 73.84 171.767 77 174z"/>
<path style="fill:#27017b; stroke:#27017b;" d="M162 148L153 146C154.307 149.123 155.749 153.237 158.529 155.377C160.337 156.77 162.637 156.649 163.973 154.677C165.398 152.574 164.995 149.4 165 147L165 132L165 74L180 74L180 131L180 149C180 152.268 180.338 155.791 179.606 159C177.592 167.826 167.292 176.373 158 174.456C152.4 173.301 148.511 169.138 144 166C148.265 175.859 161.369 180.223 170.996 175.101C177.26 171.768 181.78 163.879 182.71 157C183.635 150.156 183 142.897 183 136L183 96L183 81C182.995 78.6633 183.396 75.6039 181.972 73.5725C180.403 71.334 177.489 71.1103 175 71.0185C170.359 70.8475 164.602 70.9613 162.603 76.044C161.23 79.5363 162 84.3149 162 88L162 114L162 148z"/>
<path style="fill:#0b012f; stroke:#0b012f;" d="M192 72C192.98 78.1631 196.467 80.4346 200.826 84.4637C203.125 86.588 205.103 89.1087 207.026 91.5718C212.22 98.2241 214.846 105.252 217.961 112.961L221.161 120.09C222.69 124.723 222 130.187 222 135C222 140.584 222.515 146.465 221.699 152C220.861 157.687 218.531 163.592 216.609 169C214.671 174.45 211.29 179.359 210 185C215.289 183.166 217.221 175.885 219.05 171C221.718 163.874 224.064 156.624 224.829 149C225.491 142.407 224.887 135.042 228 129L224 127L224 126L227 127C226.285 118.249 221.706 110.638 221 102L222 102C222.768 103.314 222.686 103.232 224 104C222.643 100.03 220.497 96.685 218.535 93.0008C217.539 91.1308 216.842 89.0898 215.455 87.4552L207.91 80.1651C204.869 77.2717 201.198 72.9064 197 75C195.347 73.4875 194.106 72.8192 192 72z"/>
<path style="fill:#ffffff; stroke:#ffffff;" d="M77 174L93 174L93 111C93 106.433 91.9833 100.351 93.7423 96.044C94.604 93.934 96.5136 91.79 99.0147 92.037C102.479 92.3792 105.042 96.3781 106.756 99C111.447 106.174 114.28 115.296 120.093 121.682C122.257 124.059 125.004 123.979 128.001 123.999L141 124C137.174 113.55 129.959 103.66 124.421 94C121.175 88.3376 118.227 81.6522 112.96 77.5579C100.923 68.201 83.8582 74.4438 78.4792 88C76.8138 92.1969 77.0003 96.5684 77 101L77 116L77 174M165 74L165 137C165 141.689 165.883 147.423 164.682 151.98C164.225 153.713 163.112 155.793 161.035 155.793C158.553 155.793 156.961 152.814 155.877 150.995C152.602 145.505 150.422 139.052 146.215 134.148C141.928 129.152 132.944 131 127 131C127.627 135.79 130.102 139.723 132.247 144L138.691 156C141.778 161.695 144.545 167.491 150.004 171.351C160.043 178.449 173.41 173.773 178.558 162.999C180.216 159.53 179.999 155.745 180 152L180 136L180 74L165 74z"/>
<path style="fill:#0f013b; stroke:#0f013b;" d="M187 90C183.479 104.784 185 120.908 185 136C185 144.018 183.719 153.283 186 161L188 161C191.644 151.982 195.572 143.933 196 134L197 134L197 140L198 140C199.581 134.373 200.455 128.869 199.826 123L197.478 112C196.91 108.301 198.029 104.566 196.567 101C194.975 97.1157 191.988 93.7163 190 90L187 90z"/>
<path style="fill:#190153; stroke:#190153;" d="M194 93C194.924 96.0056 196.475 98.8699 196.948 102L197.303 112L199.91 125C200.282 130.197 199.038 134.967 198 140L197 140L197 134L196 134C194.824 148.781 187.624 162.879 177.8 173.826C174.808 177.161 171.281 179.962 168 183C168.653 186.441 166.589 188.059 163.991 190.232C159.185 194.252 153.646 196.776 148 199.374C141.871 202.194 135.571 204.913 129 206.556L118.17 208.245L110.985 210.101L100 210.343L89 213.671C83.2087 214.679 76.8653 214 71 214L72 217C67.6623 218.033 63.4385 218 59 218L59 219C67.7199 222.671 75.3563 227.233 85 228L85 229L70 229L70 230L112 230C120.378 230 129.017 230.935 137 228.046C142.823 225.939 151.619 223.422 155 218C149.859 218.645 145.99 221.912 141 222.946L130 224.258C121.568 225.679 113.667 227.344 105 226.961C97.4764 226.628 89.3088 224.801 82 223C86.5145 221.083 91.3471 220.408 96 218.886L103 216.299L112.999 215.532C116.758 214.801 119.489 212.193 123.09 211.299L130 210.381C134.372 209.561 138.86 208.161 143 206.536C150.773 203.485 157.3 199.263 164.011 194.435C166.729 192.479 169.617 190.763 172.079 188.471L177.664 182.262L183.907 176.66C189.401 169.815 193.144 161.979 196.666 154.039L199.73 148.715C202.18 143.783 204.034 137.459 204.714 132C205.689 124.166 204.485 116.659 203 109C210.939 117.653 213.736 128.469 214.015 140L214.471 149C214.086 153.17 212.389 157.088 211.028 161C208.706 167.672 206.395 174.12 202.265 179.961C195.755 189.166 185.815 195.101 180 205C183.652 203.823 185.394 201.251 187.999 198.528C189.802 196.643 191.641 195.221 193 193L196 194C207.413 178.546 216.992 160.682 217 141C217.001 137.788 217.336 134.341 216.74 131.17C215.53 124.734 211.453 117.84 208.594 112L205.547 104.174C203.114 99.9436 197.853 95.9123 194 93z"/>
<path style="fill:#090129; stroke:#090129;" d="M221 102C221.378 110.659 225.84 118.383 227 127C225.521 126.014 225.797 126 224 126L224 127L228 129C224.117 134.585 225.551 142.532 224.711 149C223.763 156.295 221.617 163.145 219.05 170C217.465 174.234 215.803 179.119 212.954 182.701C210.619 185.635 206.651 186.357 204.182 189.264C198.455 196.006 194.53 204.354 186.996 209.529C184.273 211.399 180.886 211.675 178 213.228C174.421 215.153 171.297 218.054 168 220.421C163.928 223.343 159.542 225.591 157 230L187 230L187 229L169 229L169 228C179.802 223.815 187.483 212.87 195.715 205.162C198.139 202.892 201.683 202.88 203.826 200.528C208.068 195.873 210.184 187.374 217 186C219.796 181.447 221.297 175.745 226 173C223.953 180.214 221.267 187.639 220 195L221 195C223.22 189.706 226.849 185.316 229 180L230 180L230 191L231 191L231 131C231 120.512 230.449 108.668 221 102z"/>
<path style="fill:#0f013d; stroke:#0f013d;" d="M212 106C214.287 114.747 217.518 123.918 217.96 133C218.687 147.968 213.669 163.883 206.677 177C203.52 182.923 199.033 188.05 196 194C194.521 193.014 194.797 193 193 193L187.269 198.528C185.469 200.386 183.921 202.609 181.711 204.016L174.424 207.479L162 216.367L154 219.873C147.071 223.221 140.335 226.609 133 229L133 230L147 230C149.555 230 152.412 230.322 154.91 229.686C157.654 228.987 159.763 226.792 162.039 225.225L177 214.463C180.435 212.181 184.701 212.117 187.985 209.659C194.502 204.782 198.814 197.505 203.51 191.054L209.899 183.871C213.819 178.298 216.111 171.416 218.177 165C219.347 161.37 220.829 157.76 221.532 154C222.736 147.566 222 140.523 222 134C222 129.511 222.613 124.465 221.446 120.09C220.159 115.265 217.334 110.887 216 106L212 106z"/>
<path style="fill:#1f035d; stroke:#1f035d;" d="M203 109L204.91 121C205.542 130.014 203.539 138.606 200.137 146.91L197.105 152.17L190.526 165.91C188.139 170.043 185.113 173.267 184 178C188.777 173.949 191.455 168.368 194.579 163.039C197.742 157.647 201.264 152.931 203.533 147C206.623 138.924 207 130.519 207 122L208 122C209.896 132.062 211.639 143.83 209.482 154C206.547 167.842 198.261 180.479 189.13 190.996C184.915 195.852 180.266 200.835 174.999 204.582C171.661 206.957 167.526 207.544 164.039 209.675L155.961 215.246C152.841 216.71 149.373 216.69 146.17 217.836L137.996 221.566C134.408 222.632 130.66 222.685 127 223.321C122.985 224.019 119.118 225.43 115 225.544C106.687 225.774 98.3478 224 90 224L90 222C101.331 221.106 112.966 220.977 123.91 217.486C128.652 215.974 131.915 212.739 136.129 210.424L144 207.536L156 202L156 201C150.582 201.966 146.125 205.048 141 206.91C137.128 208.318 133.052 209.621 129 210.381L122.17 211.299L113.996 215.058C110.346 216.142 106.699 215.636 103 216.144C100.152 216.534 97.7008 218.002 95 218.886C90.6837 220.298 85.9023 220.647 82 223C92.5329 226.331 104.978 227.879 116 226.83L131 224.258C135.299 223.534 139.794 223.823 144 222.465L151 219.229C155.056 217.839 159.085 218.56 163 216.366C167.106 214.064 170.664 210.882 174.424 208.09L180.742 203.614L190.424 192.884L200.04 183.561C205.097 178.133 208.096 170.957 210.354 164C211.858 159.365 213.883 154.869 214.546 150C214.964 146.928 214.297 144.052 214.09 141C213.728 135.687 213.93 131.147 212.282 126C210.094 119.169 208.985 113.594 203 109z"/>
<path style="fill:#0b012f; stroke:#0b012f;" d="M102 122C100.525 133.669 101.331 145.268 101.179 157L100.185 166.996L101 174L102 175L104 174C101.975 177.709 98.3954 180.735 103 184L103 185L99 186L101 189C103.804 189.239 106.247 190.438 109.004 191.038C116.376 192.641 124.462 193.844 132 194L132 195C127.755 195.335 123.13 195.648 119.015 196.764L110 200L110 201C112.79 201.326 115.011 202.097 117 200C125.615 201.666 134.463 197.669 142.17 194.119C147.082 191.856 151.286 189.849 154 185C148.143 181.284 144.049 175.432 139.389 170.417L134.333 166.694C132.664 164.965 131.363 162.039 130.083 159.972L122.417 148.778C120.85 146.233 121.054 144.651 118 144L119 143L118 141L119 140C119.291 137.96 119.291 135.04 119 133L118 132L118 131L116 130L116 129L115 129L112 125L111 125C109.116 123.458 109.123 121.772 107 121C104.454 120.074 104.297 121.703 103 123L102 122z"/>
<path style="fill:#39098f; stroke:#39098f;" d="M207 122C207 130.169 206.492 138.267 203.533 146C201.26 151.942 197.812 156.719 194.579 162.09C191.797 166.713 189.475 171.84 185.625 175.736L177.665 181.474L170.41 189.215L160.3 196.579C157.824 198.648 155.693 201.124 152.91 202.802C147.601 206.003 141.595 207.276 136.129 209.965C131.514 212.235 128.073 215.898 122.961 217.486C112.132 220.85 101.099 220.597 90 222L90 224C96.0461 224.001 101.98 224.65 108 225.089C110.686 225.285 113.294 225.888 116 225.674L128 223.321C131.983 222.629 136.111 222.635 139.961 221.251L147.09 217.836L155.961 215.66C159.359 214.291 161.905 211.539 165.015 209.675C168.52 207.575 172.666 206.968 175.996 204.582C186.388 197.136 195.016 185.944 201.385 175C205.059 168.687 208.464 161.261 209.674 154C210.485 149.137 210.002 143.915 210 139C209.998 133.418 210.255 126.737 207 122z"/>
<path style="fill:#09012b; stroke:#09012b;" d="M105 132C104.874 133.714 104.698 134.433 104 136C105.221 137.87 105.792 138.823 106 141L109 142C105.694 144.947 104.632 147.683 104 152L108 152L108 153C103.602 154.459 102.566 159.229 105 163L103.299 165.45C101.372 171.302 106.123 174.439 111 176L111 177C108.668 177.982 102.99 181.896 107.469 184.397C109.02 185.263 111.307 184.98 113 185L113 186C110.07 188.779 114.338 190.202 117.005 190.731C127.038 192.719 143.522 196.122 147 183L143 183C144.534 181.977 144.402 182.195 145 181C142.121 178.64 139.573 177.059 136 176C136.046 173.752 135.876 173.104 135 171C131.07 170.648 130.658 168.635 131 165C129.327 163.554 127.899 162.065 126 161L127 159C123.437 156.429 120.431 153.643 116 153C117.077 147.934 115.615 144.649 113.785 139.985C112.389 136.429 112.428 132.784 108.14 131.595C107.071 131.298 106 131.815 105 132z"/>
<path style="fill:#6517cb; stroke:#6517cb;" d="M208 132C207.791 141.83 203.524 151.42 199.012 160C193.86 169.795 186.862 179.893 178.83 187.575C174.07 192.127 168.747 195.729 163.424 199.554L155.999 204.944C149.046 208.996 141.546 211.658 134.015 214.358C129.106 216.118 125.207 218.907 120 220L120 221C126.623 220.697 132.653 218.242 139 216.608C145.862 214.841 153.497 213.843 160 210.868C177.905 202.678 191.026 187.007 200.23 170C202.182 166.392 204.724 162.738 206.022 158.83C207.466 154.479 207.613 149.529 208.155 145C208.678 140.626 209.749 136.169 208 132z"/>
<path style="fill:#0b012b; stroke:#0b012b;" d="M26 150C26.0017 152.18 25.7221 154.67 26.314 156.792C27.0225 159.333 29.3663 160.995 30.8202 163.104C34.123 167.896 36.7404 173.139 40.8989 177.316L47.4051 182.455C49.9682 184.857 51.7122 187.786 53 191L46 191L46 192C46.9525 192.635 49.6598 193.639 50 195L49 195C49 196.781 49.6619 195.732 51 196L51 197C49.5484 197.251 49.2483 197.315 48 198L51 201C48.3765 201.002 44.4764 200.141 44 203L39 202C38.3562 204.106 38.0941 205.795 38 208C35.9053 207.762 34.1107 207.816 32 208C38.2243 224.066 58.1635 230.991 74 229L74 228C67.2188 226.201 60.2047 224.161 54.0386 220.723L47.8302 215.813C45.1939 213.986 42.0085 213.018 39 212L39 211C44.2172 212.257 50.4343 214.479 55 211C53.2553 210.11 51.875 209.547 50 209L50 208C56.9095 209.283 63.0921 208.261 70 208L70 207L66 205L66 204C67.6865 204.218 68.3161 204.224 70 204C68.7772 202.805 68.58 202.684 67 202L67 201C71.8927 201.615 76.109 201.385 81 201C78.2516 196.756 73.366 196.234 69 194.076C64.9361 192.067 61.6953 189.356 58.0008 186.796L50.7454 182.19C47.5674 179.574 44.3371 176.255 42.2099 172.714L39.3727 166C38.0992 163.427 36.2237 161.268 34.4954 159C31.902 155.597 29.7419 152.165 26 150z"/>
<path style="fill:#070123; stroke:#070123;" d="M26 159L25.9606 178C25.714 183.632 25.0841 188.355 26.0841 194C26.7802 197.93 27.7873 204.575 31.4144 206.961C33.259 208.175 35.8907 207.845 38 208L39 202L44 203L43.8333 201.5C45.9571 200.577 48.6661 201 51 201C49.7912 198.764 47.8323 197.422 51 197L51 196C48.8208 195.274 49.2197 195.561 50 194L46 192L46 191C48.5107 191.359 50.4982 191.402 53 191C50.8779 183.133 44.2166 180.7 39.4252 174.826C35.2157 169.666 32.4587 161.413 26 159z"/>
<path style="fill:#070125; stroke:#070125;" d="M217 186C209.604 186.712 207.734 195.646 203.289 200.477C201.849 202.043 200.059 201.955 198.195 202.649C196.876 203.14 195.832 204.21 194.829 205.149C186.447 212.998 179.082 222.173 169 228L169 229L179 229C181.638 224.301 187.063 221.036 190.871 217.17C193.174 214.832 194.837 211.996 198 211C200.823 208.4 204.467 208.431 208 207C207.391 210.305 206.431 212.917 208 216C210.456 212.416 213.328 209.756 216.169 206.546C218.211 204.237 219.574 201.95 222 200L221 205L222 205L225.735 199.204C226.908 197.671 228.621 196.429 229.401 194.625C231.147 190.589 230 184.337 230 180L229 180C226.174 184.997 222.608 189.434 221 195L220 195C222.001 187.665 224.454 180.471 226 173C221.111 174.87 219.002 181.34 217 186z"/>
<path style="fill:#0d0135; stroke:#0d0135;" d="M117 200C114.644 201.371 112.743 201.141 110 201L110 200L114 200L114 199C109.724 199 105.242 198.621 101 199.209C98.2873 199.585 95.7789 200.71 93 200.606C88.5991 200.442 84.3378 198.638 80 198C80 199.797 80.0143 199.521 81 201C76.2123 201.202 71.7905 201.365 67 201L67 202C68.4162 202.472 68.8137 202.814 70 204L66 204L66 205L70 207L70 208C63.1219 208.09 56.8778 208.869 50 208L50 209L55 211C49.8017 213.764 44.5856 212.041 39 211L39 212C41.6201 213.227 44.5025 214.191 46.9105 215.813L52.1698 220.161C56.8236 223.272 63.4397 225.742 69 226L69 225C63.7173 223.489 59.7372 220.541 55 218L55 217C58.8007 217 62.3433 217.081 66 216C63.8528 213.662 62.0762 212.799 59 212L59 211L83 210L83 209L80 209L80 208C81.8782 207.824 83.1994 207.562 85 207C83.7516 206.315 83.4516 206.251 82 206L82 205L98 205.09C101.307 205.316 104.576 206.227 107.91 205.867L114.09 204.219C119.344 203.022 124.876 202.296 130 200.594L139 197C134.976 195.782 131.813 198.143 128.001 199.319C124.502 200.398 120.609 200.375 117 200z"/>
<path style="fill:#05011f; stroke:#05011f;" d="M228 196C225.253 198.663 223.585 201.527 222 205L221 205L222 200C218.923 201.639 217.8 204.046 215.461 206.546C212.485 209.727 209.918 211.983 208 216C206.952 212.783 207.652 210.311 208 207C204.274 208.024 200.219 207.636 198 211C194.667 211.617 193.283 213.913 190.871 216.286C187.022 220.075 180.747 223.83 179 229L190 229.624C202.862 228.925 214.728 222.302 222.39 212C225.53 207.779 229.901 201.36 228 196z"/>
</svg>
